<?xml version="1.0" standalone="no"?>
<!DOCTYPE svg PUBLIC "-//W3C//DTD SVG 20010904//EN"
 "http://www.w3.org/TR/2001/REC-SVG-20010904/DTD/svg10.dtd">
<svg version="1.0" xmlns="http://www.w3.org/2000/svg"
 width="512.000000pt" height="512.000000pt" viewBox="0 0 512.000000 512.000000"
 preserveAspectRatio="xMidYMid meet">

<g transform="translate(0.000000,512.000000) scale(0.100000,-0.100000)"
fill="#000000" stroke="none">
<path d="M2393 5105 c-250 -45 -489 -200 -624 -405 -221 -334 -220 -746 2
-1074 l60 -89 -124 -125 -124 -124 -84 58 c-96 65 -183 107 -284 135 -437 121
-904 -83 -1109 -486 -303 -598 78 -1305 747 -1385 205 -24 416 23 604 137 39
24 75 43 80 43 11 0 253 -243 253 -254 0 -4 -20 -40 -44 -80 -94 -150 -140
-314 -140 -496 0 -203 53 -376 165 -542 402 -592 1299 -540 1634 95 166 315
145 683 -56 981 l-60 89 124 125 125 125 49 -35 c339 -248 773 -259 1115 -27
138 94 246 221 322 380 284 589 -98 1279 -754 1359 -208 25 -425 -24 -606
-136 -40 -24 -76 -44 -81 -44 -11 0 -253 242 -253 253 0 5 19 41 43 80 114
189 161 398 137 604 -24 198 -105 384 -231 527 -33 38 -47 46 -75 46 -80 0
-98 -74 -35 -149 190 -228 246 -515 152 -788 -85 -249 -278 -432 -541 -515
-64 -20 -96 -23 -220 -23 -124 0 -156 3 -220 23 -353 111 -580 410 -582 767 0
137 20 230 76 350 54 113 121 202 205 272 227 188 519 240 794 143 103 -36
117 -37 146 -6 33 35 26 84 -17 113 -112 75 -382 112 -569 78z m956 -1759
l124 -125 -34 -38 c-82 -91 -153 -222 -196 -360 -25 -81 -27 -101 -27 -263 0
-162 2 -182 27 -263 33 -106 83 -209 144 -296 l46 -63 -126 -125 -125 -126
-63 46 c-88 61 -192 112 -296 143 -70 21 -117 27 -225 31 -75 3 -148 3 -163
-1 -57 -14 -83 -77 -51 -122 13 -17 32 -20 173 -25 175 -7 242 -23 367 -86
402 -202 555 -688 345 -1093 -99 -192 -291 -344 -506 -401 -93 -25 -276 -30
-368 -10 -123 27 -261 95 -360 178 -112 93 -217 265 -255 417 -25 97 -27 271
-5 366 46 198 158 368 314 478 97 67 111 82 111 114 0 36 -40 78 -73 78 -28 0
-126 -61 -187 -116 l-41 -38 -126 127 -127 126 38 41 c78 86 152 223 193 357
25 81 27 101 27 263 0 162 -2 182 -27 263 -33 106 -83 209 -144 296 l-46 63
125 125 125 125 69 -48 c86 -59 206 -116 304 -144 107 -31 316 -39 431 -15
155 31 331 115 429 203 25 23 47 41 50 42 3 0 61 -56 129 -124z m1014 -7 c145
-36 311 -136 401 -242 258 -305 273 -717 36 -1029 -102 -134 -272 -245 -445
-289 -98 -25 -258 -27 -362 -5 -285 60 -512 272 -605 566 -20 64 -23 96 -23
220 0 124 3 156 23 220 84 265 275 464 525 545 151 48 296 53 450 14z m-3163
-18 c121 -41 213 -95 302 -179 289 -273 338 -691 119 -1025 -50 -75 -169 -195
-220 -222 -93 -48 -325 -63 -469 -31 -402 89 -693 452 -692 861 1 81 21 205
42 255 39 92 177 221 307 288 141 73 226 92 391 88 109 -3 137 -7 220 -35z"/>
<path d="M2028 1173 c-40 -46 -28 -95 36 -151 39 -34 119 -62 176 -62 128 0
260 106 230 184 -21 55 -85 61 -134 12 -58 -57 -143 -56 -197 4 -33 35 -86 41
-111 13z"/>
<path d="M2677 1179 c-29 -17 -39 -55 -23 -93 28 -67 134 -126 226 -126 91 0
191 54 226 122 43 83 -61 148 -125 78 -54 -60 -139 -61 -197 -4 -35 35 -72 43
-107 23z"/>
<path d="M2418 754 c-109 -26 -211 -94 -243 -159 -14 -31 -15 -41 -4 -66 26
-64 81 -66 140 -4 62 65 128 88 249 88 121 0 187 -23 249 -88 59 -62 114 -60
140 4 33 77 -91 188 -251 226 -78 18 -204 18 -280 -1z"/>
<path d="M3813 2790 c-32 -13 -43 -41 -43 -113 0 -79 18 -108 69 -109 53 -2
81 37 81 112 0 47 -5 64 -22 84 -27 29 -55 38 -85 26z"/>
<path d="M4453 2790 c-12 -5 -26 -18 -32 -29 -12 -22 -15 -129 -5 -156 10 -26
63 -45 93 -34 39 16 50 39 50 109 0 67 -9 89 -46 108 -25 14 -30 14 -60 2z"/>
<path d="M3893 2305 c-55 -24 -57 -105 -3 -132 34 -17 511 -18 543 -1 52 27
60 71 23 115 l-24 28 -254 2 c-201 2 -260 0 -285 -12z"/>
<path d="M506 2859 c-32 -25 -37 -87 -8 -111 23 -21 198 -108 216 -108 32 0
66 24 76 55 19 56 -1 80 -112 136 -109 54 -133 59 -172 28z"/>
<path d="M1245 2833 c-115 -58 -125 -67 -125 -114 0 -42 35 -79 75 -79 12 0
67 22 122 49 79 39 102 55 112 78 23 56 -12 114 -69 112 -14 0 -65 -21 -115
-46z"/>
<path d="M855 2369 c-206 -34 -359 -185 -272 -267 39 -37 78 -29 135 27 76 74
198 106 317 81 77 -16 109 -32 167 -86 51 -48 87 -56 125 -29 73 51 4 168
-137 234 -99 46 -217 60 -335 40z"/>
<path d="M2142 4461 c-116 -40 -176 -149 -109 -196 36 -25 73 -18 110 19 38
37 81 51 128 41 18 -4 47 -22 66 -41 50 -50 111 -44 131 14 29 82 -100 183
-232 182 -23 -1 -65 -9 -94 -19z"/>
<path d="M2782 4461 c-91 -32 -150 -105 -130 -163 20 -58 81 -64 131 -14 38
37 81 51 128 41 18 -4 47 -22 66 -41 37 -37 74 -44 110 -19 95 66 -52 216
-211 215 -23 -1 -65 -9 -94 -19z"/>
<path d="M2195 3957 c-74 -63 5 -172 175 -239 47 -19 74 -22 190 -22 116 0
143 3 190 22 170 67 249 176 175 239 -37 32 -67 24 -124 -33 -33 -33 -60 -49
-109 -64 -137 -43 -294 -16 -373 64 -57 57 -87 65 -124 33z"/>
</g>
</svg>
